<svg xmlns="http://www.w3.org/2000/svg" width="247" height="210" fill="none" viewBox="0 0 247 210"><mask id="mask0" width="265" height="210" x="0" y="0" mask-type="alpha" maskUnits="userSpaceOnUse"><rect width="265" height="210" fill="url(#paint0_linear)"/></mask><g mask="url(#mask0)"><path fill="url(#paint1_linear)" d="M3.03412 220.341C-13.3618 248.782 -3.61438 285.16 24.8056 301.593V301.593L149.776 84.8118C166.172 56.3704 156.424 19.9924 128.004 3.55939V3.55939L3.03412 220.341Z" opacity=".7"/><path fill="url(#paint2_linear)" d="M43.8915 277.869C27.4956 306.31 37.243 342.688 65.663 359.121V359.121L190.633 142.34C207.029 113.899 197.282 77.5205 168.862 61.0875V61.0875L43.8915 277.869Z" opacity=".7"/><path fill="url(#paint3_linear)" d="M84.749 334.041C68.3531 362.483 78.1005 398.861 106.52 415.294V415.294L231.491 198.512C247.886 170.071 238.139 133.693 209.719 117.26V117.26L84.749 334.041Z" opacity=".7"/></g><defs><linearGradient id="paint0_linear" x1="0" x2="203.966" y1="0" y2="257.386" gradientUnits="userSpaceOnUse"><stop stop-color="#6A98F0"/><stop offset="1" stop-color="#4961DC"/></linearGradient><linearGradient id="paint1_linear" x1="-26.653" x2="83.388" y1="271.839" y2="309.942" gradientUnits="userSpaceOnUse"><stop stop-color="#6A98F0"/><stop offset="1" stop-color="#4961DC"/></linearGradient><linearGradient id="paint2_linear" x1="14.204" x2="124.246" y1="329.367" y2="367.47" gradientUnits="userSpaceOnUse"><stop stop-color="#6A98F0"/><stop offset="1" stop-color="#4961DC"/></linearGradient><linearGradient id="paint3_linear" x1="55.062" x2="165.103" y1="385.539" y2="423.643" gradientUnits="userSpaceOnUse"><stop stop-color="#6A98F0"/><stop offset="1" stop-color="#4961DC"/></linearGradient></defs></svg>