<svg width="57" height="48" viewBox="0 0 57 48" fill="none" xmlns="http://www.w3.org/2000/svg">
<g opacity="0.8">
<mask id="mask0" mask-type="alpha" maskUnits="userSpaceOnUse" x="0" y="0" width="62" height="48">
<rect width="61.1539" height="48" fill="#F8F8F8"/>
</mask>
<g mask="url(#mask0)">
<path opacity="0.8" fill-rule="evenodd" clip-rule="evenodd" d="M0.732861 50.3071C-3.06896 56.8392 -0.834256 65.1794 5.7242 68.9355L34.5306 19.4419C38.3324 12.9098 36.0977 4.5696 29.5393 0.813477L0.732861 50.3071ZM10.1616 63.4565C6.35975 69.9886 8.59445 78.3288 15.1529 82.0849L43.9593 32.5913C47.7611 26.0593 45.5264 17.719 38.968 13.9629L10.1616 63.4565ZM24.5816 94.9244C18.0232 91.1682 15.7885 82.828 19.5903 76.2959L48.3967 26.8023C54.9552 30.5585 57.1899 38.8987 53.388 45.4308L24.5816 94.9244Z" fill="#F8F8F8"/>
</g>
</g>
</svg>
