<svg width="416" height="416" viewBox="0 0 416 416" fill="none" xmlns="http://www.w3.org/2000/svg">
<path d="M359.636 207.636C359.636 291.583 291.583 359.636 207.636 359.636C123.689 359.636 55.6359 291.583 55.6359 207.636C55.6359 123.688 123.689 55.6357 207.636 55.6357C291.583 55.6357 359.636 123.688 359.636 207.636ZM66.6022 207.636C66.6022 285.526 129.745 348.669 207.636 348.669C285.527 348.669 348.67 285.526 348.67 207.636C348.67 129.745 285.527 66.6021 207.636 66.6021C129.745 66.6021 66.6022 129.745 66.6022 207.636Z" fill="#C7D0FF"/>
<path d="M207.636 55.6359C170.759 55.6359 135.141 69.0419 107.415 93.3562C79.6901 117.671 61.7496 151.235 56.9363 187.796C52.1229 224.357 60.765 261.421 81.2525 292.083C101.74 322.744 132.675 344.912 168.295 354.457C203.915 364.001 241.79 360.271 274.864 343.961C307.937 327.651 333.954 299.873 348.066 265.804C362.178 231.734 363.423 193.697 351.569 158.777C339.716 123.858 315.572 94.4383 283.636 76L278.153 85.4972C307.785 102.605 330.187 129.902 341.185 162.302C352.183 194.702 351.028 229.996 337.934 261.607C324.84 293.219 300.701 318.992 270.013 334.125C239.326 349.258 204.184 352.72 171.134 343.864C138.084 335.008 109.38 314.439 90.3707 285.99C71.3613 257.54 63.3427 223.15 67.8088 189.227C72.2748 155.304 88.921 124.161 114.646 101.601C140.371 79.041 173.42 66.6022 207.636 66.6022L207.636 55.6359Z" fill="url(#paint0_linear)"/>
<defs>
<linearGradient id="paint0_linear" x1="415.272" y1="152" x2="0.969371" y2="263.012" gradientUnits="userSpaceOnUse">
<stop stop-color="#6A98F0"/>
<stop offset="1" stop-color="#4961DC"/>
</linearGradient>
</defs>
</svg>
